Coordinates
version=1
nRows=14
nColumns=40
inDegrees=yes

Units are S.I. units (second, meters, Newtons, ...)
Angles are in degrees.

endheader
time	pelvis_tilt	pelvis_list	pelvis_rotation	pelvis_tx	pelvis_ty	pelvis_tz	hip_flexion_r	hip_adduction_r	hip_rotation_r	knee_angle_r	knee_angle_r_beta	ankle_angle_r	subtalar_angle_r	mtp_angle_r	hip_flexion_l	hip_adduction_l	hip_rotation_l	knee_angle_l	knee_angle_l_beta	ankle_angle_l	subtalar_angle_l	mtp_angle_l	lumbar_extension	lumbar_bending	lumbar_rotation	arm_flex_r	arm_add_r	arm_rot_r	elbow_flex_r	pro_sup_r	wrist_flex_r	wrist_dev_r	arm_flex_l	arm_add_l	arm_rot_l	elbow_flex_l	pro_sup_l	wrist_flex_l	wrist_dev_l
     36.73500000	     -4.79862694	     -3.24136364	     -7.26601622	      0.93008072	      0.92413152	      0.51041328	     21.83186405	      1.99661576	     -9.89920355	     18.82558250	     18.82558250	      4.55465295	      3.65100844	     -8.45411671	     -0.66167101	     -5.86045368	     -9.90415445	     24.53213340	     24.53213340	     18.80379840	    -11.88788995	      1.39166587	     -9.77079024	     10.26166149	     -0.08041361	     -2.78327497	    -13.31102485	    -22.83377472	     42.53570186	     46.28448991	      0.00000000	      0.00000000	     29.77320560	    -17.64275767	     -5.60352534	     75.32912250	     48.07677966	      0.00000000	      0.00000000
     36.75600000	     -4.55409751	     -3.35296029	     -6.60925989	      0.93265240	      0.92526064	      0.51447679	     21.00024801	      2.24490586	     -9.85914481	     19.05973206	     19.05973206	      5.68716335	      2.92701944	     -7.00925564	      0.39076258	     -6.77230627	     -9.47817076	     27.71798119	     27.71798119	     15.50841632	    -13.30808546	     -4.77979840	     -9.72558749	     10.36488727	      0.32733850	     -3.94299588	    -13.67241415	    -22.64377590	     45.88164033	     46.11979454	      0.00000000	      0.00000000	     28.66004105	    -17.17515115	     -2.98386626	     72.96368054	     47.84076353	      0.00000000	      0.00000000
     36.77700000	     -4.07115080	     -3.50654385	     -5.93965699	      0.93518998	      0.92665915	      0.51850422	     19.75063125	      2.47999956	    -10.22990254	     18.96113483	     18.96113483	      6.28645508	      2.75811109	     -7.10029291	      1.61679718	     -7.64776936	     -8.64740537	     31.75799749	     31.75799749	     13.90061050	    -14.45771598	     -5.57061303	    -10.00528433	     10.33499158	      0.45319013	     -3.72987099	    -14.01187171	    -22.67291535	     46.05234699	     46.11488193	      0.00000000	      0.00000000	     26.81257916	    -16.24648296	     -2.40674683	     72.09358331	     47.77287121	      0.00000000	      0.00000000
     36.79800000	     -3.84702051	     -3.55933663	     -5.19083853	      0.93741097	      0.92723029	      0.52264650	     19.01042349	      2.74895801	    -10.05994104	     19.18423153	     19.18423153	      6.82919153	      1.28917962	     -6.90754288	      3.37417876	     -8.52178223	     -7.81393577	     35.96746248	     35.96746248	     10.89504582	    -16.06368398	     -9.12299133	     -9.80117727	     10.19068681	      0.37851643	     -3.88520383	    -14.30543864	    -22.19717722	     46.76963278	     46.05434085	      0.00000000	      0.00000000	     25.22527160	    -15.66408653	     -0.81445473	     69.22272494	     47.60031336	      0.00000000	      0.00000000
     36.81900000	     -3.45641826	     -3.74108793	     -4.41335629	      0.93952625	      0.92780602	      0.52674383	     18.02374641	      3.08943278	    -10.28342039	     19.30272355	     19.30272355	      7.38869585	      0.50283634	     -6.76718165	      5.16863696	     -9.54087585	     -6.98729423	     40.44906916	     40.44906916	      8.29388007	    -17.17279923	    -10.99169917	     -9.90029447	     10.09516074	      0.84828405	     -4.36368202	    -14.69334144	    -21.59928691	     47.37930973	     45.98493371	      0.00000000	      0.00000000	     23.77780992	    -14.69848737	      0.96328671	     66.55222453	     47.42138890	      0.00000000	      0.00000000
     36.84000000	     -3.10832064	     -3.87459431	     -3.61729696	      0.94130165	      0.92799237	      0.53086949	     17.26105131	      3.42631967	    -10.34362837	     19.67482105	     19.67482105	      7.93418422	     -0.76221038	     -6.54636337	      7.30108247	    -10.40866189	     -5.95798280	     45.23830708	     45.23830708	      6.81738545	    -17.74003126	     -9.46294521	     -9.94682394	      9.90011440	      0.82027496	     -4.12628122	    -14.77726344	    -21.07888855	     47.38504443	     45.95339577	      0.00000000	      0.00000000	     21.85593478	    -14.01537146	      2.00522209	     63.71874525	     47.29215740	      0.00000000	      0.00000000
     36.86100000	     -2.73719035	     -4.00662644	     -2.78486272	      0.94277914	      0.92793295	      0.53479550	     16.56150291	      3.72360822	    -10.51903991	     20.18405837	     20.18405837	      8.60570938	     -1.80643082	     -6.21603559	      9.58530456	    -11.14329967	     -4.81160709	     49.99860596	     49.99860596	      5.98199441	    -18.08109449	     -5.74935013	    -10.01347194	      9.67225788	      0.82426759	     -3.85200640	    -14.95419114	    -20.23458240	     47.08096851	     45.91921110	      0.00000000	      0.00000000	     20.22057473	    -13.24339853	      3.14743351	     60.10736874	     47.14999149	      0.00000000	      0.00000000
     36.88200000	     -2.38753925	     -4.12685235	     -1.94940672	      0.94392833	      0.92761025	      0.53861566	     15.98999530	      3.98368837	    -10.81860666	     20.84483997	     20.84483997	      9.34886564	     -2.71067703	     -5.83046508	     11.94302617	    -11.77862003	     -3.71408873	     54.42799232	     54.42799232	      5.63899218	    -18.34216778	     -1.05485654	    -10.10387158	      9.39843577	      0.72999950	     -3.26187259	    -14.97305813	    -19.34585378	     46.73113933	     45.88792001	      0.00000000	      0.00000000	     18.44813926	    -12.59402276	      4.12724202	     56.18385710	     47.01678443	      0.00000000	      0.00000000
     36.90300000	     -2.09330414	     -4.31232985	     -1.14399877	      0.94476811	      0.92709047	      0.54235270	     15.47533284	      4.28185969	    -11.35385253	     21.47044247	     21.47044247	     10.23055216	     -3.07561219	     -5.19432790	     14.40072415	    -12.42668240	     -2.72375752	     58.45665495	     58.45665495	      6.14281606	    -18.49142268	      5.33332255	    -10.18960677	      9.17592788	      0.97319041	     -2.70956731	    -15.03316034	    -18.18804383	     46.15616769	     45.85101926	      0.00000000	      0.00000000	     16.84709056	    -11.78330845	      5.08286882	     51.95405655	     46.89227833	      0.00000000	      0.00000000
     36.92400000	     -1.73619925	     -4.48323363	     -0.34165535	      0.94533625	      0.92648459	      0.54598731	     14.95388138	      4.59762994	    -11.76204712	     22.14677162	     22.14677162	     11.00130881	     -3.76517881	     -4.88030913	     16.58421632	    -13.11883437	     -2.04182648	     61.59355607	     61.59355607	      6.07539343	    -18.89669968	      8.92978436	    -10.39365859	      8.93962746	      0.66396940	     -1.47660762	    -14.79464759	    -17.37692909	     45.89368474	     45.82634682	      0.00000000	      0.00000000	     14.80108840	    -11.38478136	      5.78834285	     47.89995898	     46.77639512	      0.00000000	      0.00000000
     36.94500000	     -1.45977869	     -4.76078772	      0.39218539	      0.94558435	      0.92573109	      0.54951663	     14.48832514	      4.99150354	    -12.40206884	     22.72951201	     22.72951201	     11.92376347	     -3.84443659	     -4.15503741	     18.87206416	    -13.90557982	     -1.47349484	     64.22249424	     64.22249424	      7.22653884	    -19.08629821	     14.57666150	    -10.54476374	      8.80728755	      1.17049279	     -0.43307642	    -14.82627434	    -15.86106723	     44.85388451	     45.79633449	      0.00000000	      0.00000000	     13.45368732	    -10.51543838	      6.54960425	     42.91657380	     46.65867920	      0.00000000	      0.00000000
     36.96600000	     -1.20835149	     -5.04692857	      1.10299363	      0.94557547	      0.92476455	      0.55297277	     14.08682413	      5.42352010	    -12.94683324	     23.29671203	     23.29671203	     12.61708934	     -4.17542302	     -4.03296340	     20.92682682	    -14.83327888	     -1.25468630	     65.85591659	     65.85591659	      7.55329037	    -19.31673512	     16.13245503	    -10.74747533	      8.69672058	      1.00063374	      0.99126971	    -14.34584086	    -15.34235811	     45.20487901	     45.76486519	      0.00000000	      0.00000000	     11.01568837	    -10.37481805	      7.02319060	     39.97172954	     46.56247671	      0.00000000	      0.00000000
     36.98700000	     -0.86626234	     -5.29195197	      1.71797307	      0.94528778	      0.92385857	      0.55613618	     13.66114831	      5.79367703	    -13.43252951	     24.00157204	     24.00157204	     13.64874652	     -4.25197988	     -3.23338751	     22.80256152	    -15.61735736	     -1.13546461	     66.87481680	     66.87481680	      9.26770896	    -19.43886855	     20.25885307	    -11.05798365	      8.55678259	      1.41873622	      2.76585363	    -14.38202510	    -13.58361475	     44.33857592	     45.72341791	      0.00000000	      0.00000000	      9.70647164	     -9.80931035	      7.81875263	     34.82160094	     46.43341802	      0.00000000	      0.00000000
     37.00800000	     -0.65846007	     -5.55567352	      2.31310459	      0.94473410	      0.92265104	      0.55906418	     13.36821506	      6.19905845	    -13.86533868	     24.58122908	     24.58122908	     14.34932695	     -4.53334896	     -3.12564877	     24.57010540	    -16.43285697	     -1.21097949	     66.94566405	     66.94566405	     10.24019606	    -19.53239534	     20.99357901	    -11.29493515	      8.47720480	      1.48628971	      4.53076915	    -13.98944026	    -13.10029840	     45.02731128	     45.68420747	      0.00000000	      0.00000000	      7.25795840	     -9.76211718	      8.19663511	     32.40936279	     46.34203549	      0.00000000	      0.00000000
